<?xml version="1.0" standalone="no"?>
<!DOCTYPE svg PUBLIC "-//W3C//DTD SVG 20010904//EN"
 "http://www.w3.org/TR/2001/REC-SVG-20010904/DTD/svg10.dtd">
<svg version="1.0" xmlns="http://www.w3.org/2000/svg"
 width="950.000000pt" height="950.000000pt" viewBox="0 0 950.000000 950.000000"
 preserveAspectRatio="xMidYMid meet">
<metadata>
Created by potrace 1.14, written by Peter Selinger 2001-2017
</metadata>
<g transform="translate(0.000000,950.000000) scale(0.100000,-0.100000)"
fill="#000000" stroke="none">
<path d="M4018 9495 c-1 -1 -55 -6 -118 -10 -193 -11 -233 -14 -275 -20 -22
-3 -65 -8 -95 -10 -30 -3 -64 -7 -75 -10 -11 -2 -45 -7 -75 -10 -30 -3 -82
-10 -115 -16 -33 -6 -71 -12 -84 -14 -22 -4 -75 -14 -156 -31 -16 -3 -39 -7
-50 -9 -11 -2 -21 -4 -22 -5 -4 -3 -7 -4 -58 -14 -107 -20 -465 -130 -518
-158 -10 -5 -26 -11 -35 -13 -9 -2 -39 -13 -67 -26 -27 -12 -52 -23 -55 -23
-19 -4 -190 -92 -190 -98 0 -4 -7 -8 -15 -8 -9 0 -21 -5 -28 -10 -7 -6 -51
-35 -100 -65 -48 -29 -94 -60 -101 -67 -8 -7 -29 -24 -48 -38 -36 -27 -200
-189 -233 -230 -59 -75 -154 -234 -159 -270 -1 -3 -5 -11 -9 -18 -15 -23 -48
-145 -62 -227 -7 -44 -13 -131 -13 -194 -1 -62 -2 -114 -4 -116 -4 -4 -141
-17 -313 -30 -125 -9 -201 -17 -207 -23 -3 -4 -9 -63 -13 -132 -11 -205 -12
-211 -21 -220 -5 -5 -72 -10 -148 -12 l-139 -3 -3 -150 c-2 -82 -5 -229 -8
-326 -2 -97 -6 -182 -10 -188 -4 -6 -2 -11 4 -11 6 0 9 -4 5 -9 -3 -6 -7 -99
-10 -208 -2 -109 -7 -300 -10 -425 -7 -218 -6 -228 11 -229 11 0 40 -2 66 -5
26 -2 74 -5 108 -7 33 -2 64 -7 67 -11 4 -4 8 -21 9 -39 16 -226 59 -351 156
-447 34 -34 68 -54 131 -79 l28 -11 -43 -54 c-24 -29 -66 -80 -94 -113 l-51
-60 -2 -104 c-6 -266 -8 -688 -2 -696 3 -4 30 -26 58 -48 52 -38 56 -45 54
-95 -8 -261 -9 -271 -41 -306 -85 -98 -82 -180 10 -283 36 -40 32 -23 34 -151
1 -97 -8 -145 -25 -134 -4 2 -33 -3 -63 -13 -52 -16 -57 -20 -73 -62 -26 -67
-22 -161 10 -251 28 -77 46 -100 80 -100 11 0 36 -4 56 -10 20 -5 55 -14 78
-20 l43 -11 -5 -177 c-2 -97 -6 -256 -9 -352 -3 -96 -8 -269 -11 -384 -3 -114
-8 -212 -11 -217 -3 -5 0 -9 6 -9 6 0 8 -5 4 -12 -4 -6 -9 -77 -11 -157 -2
-80 -5 -152 -8 -159 -10 -26 197 -136 362 -192 63 -21 85 -27 138 -36 17 -3
50 -10 75 -14 71 -13 268 -10 350 6 100 20 103 20 120 27 8 3 32 11 52 17 21
6 40 16 43 21 4 5 8 55 11 112 3 56 7 143 9 192 3 50 8 140 11 200 3 61 7 130
8 155 2 25 4 77 5 117 l1 72 53 -5 c28 -2 79 -7 112 -9 191 -16 296 -26 325
-30 14 -2 61 -7 105 -10 44 -3 94 -7 111 -9 17 -3 66 -7 110 -11 120 -9 289
-24 317 -28 10 -2 44 -31 75 -64 50 -53 114 -112 178 -163 75 -61 275 -154
354 -166 14 -2 36 -6 50 -10 48 -11 242 -11 313 2 40 6 75 10 80 7 4 -2 7 0 7
4 0 5 9 9 19 10 18 2 96 25 131 40 8 3 18 7 22 7 3 1 10 4 14 8 4 5 14 8 22 8
8 0 67 26 131 58 64 33 126 57 136 56 11 -2 40 -6 65 -9 45 -6 78 -11 135 -20
17 -3 50 -7 75 -11 25 -3 52 -7 60 -10 8 -2 38 -6 65 -9 53 -6 78 -10 165 -25
30 -5 78 -12 105 -16 28 -3 59 -8 70 -10 35 -7 67 -12 197 -30 69 -9 131 -20
137 -23 6 -4 -1 -54 -20 -141 -16 -74 -31 -148 -34 -163 -2 -16 -13 -70 -24
-120 -24 -113 -31 -144 -37 -182 -3 -16 -10 -48 -16 -70 -6 -22 -13 -53 -14
-70 -2 -16 -10 -49 -18 -72 -8 -22 -11 -45 -8 -49 4 -4 -1 -4 -10 -1 -10 4
-18 2 -18 -3 0 -6 5 -10 10 -10 12 0 13 -11 0 -30 -7 -12 -12 -12 -22 -2 -17
17 -26 15 -31 -6 -4 -16 -5 -16 -6 0 0 10 8 22 19 28 21 11 27 30 9 30 -5 0
-7 -4 -4 -10 3 -5 -1 -10 -10 -10 -9 0 -14 4 -11 9 3 4 -6 13 -19 19 -18 8
-26 8 -31 0 -5 -7 -3 -8 5 -4 8 6 11 2 9 -10 -4 -22 -18 -35 -31 -27 -5 3 -4
9 2 13 9 5 7 10 -4 20 -13 11 -15 10 -9 -6 4 -15 1 -13 -16 6 -20 23 -20 23
-10 2 13 -27 6 -28 -20 -2 -22 22 -50 17 -50 -9 -1 -14 -2 -14 -11 1 -5 10
-16 15 -25 11 -9 -3 -20 0 -26 8 -8 11 -9 11 -5 -2 3 -9 0 -22 -6 -29 -9 -10
-9 -11 0 -6 6 3 15 1 19 -5 4 -8 12 -4 21 12 8 13 12 17 10 8 -4 -12 3 -15 37
-14 22 1 47 -2 54 -8 8 -6 12 -6 12 2 0 7 5 9 11 5 8 -4 7 -9 -2 -15 -7 -4
-17 -5 -21 -3 -4 3 -8 0 -8 -5 0 -6 4 -11 9 -11 6 0 9 -9 8 -20 -1 -17 -11
-19 -13 -2 -3 21 -18 41 -27 35 -6 -4 -7 -1 -2 7 5 8 3 11 -6 8 -8 -3 -13 -11
-11 -17 1 -8 -2 -9 -9 -5 -8 5 -10 2 -7 -8 4 -9 0 -15 -8 -15 -8 0 -13 7 -12
15 2 8 -3 17 -10 19 -8 3 -10 -2 -6 -14 4 -11 3 -14 -3 -7 -4 6 -17 10 -28 8
-10 -2 -25 2 -32 8 -9 7 -17 7 -28 -2 -12 -10 -19 -10 -27 -2 -17 17 -28 15
-29 -5 0 -13 -3 -11 -11 7 -16 36 -18 50 -6 50 6 0 8 -6 5 -14 -4 -10 0 -14
13 -11 10 2 21 -3 24 -11 3 -7 12 -11 21 -8 8 3 12 10 9 15 -3 5 -9 7 -14 4
-5 -3 -12 0 -16 6 -4 8 -3 9 4 5 7 -4 12 -2 12 3 0 14 -17 14 -26 0 -5 -8 -10
-6 -18 7 -6 11 -17 20 -24 22 -8 1 -11 -2 -7 -8 3 -5 1 -10 -4 -10 -6 0 -11
-5 -11 -11 0 -5 4 -8 8 -5 5 3 8 -5 7 -17 -1 -12 2 -25 7 -28 5 -3 2 -9 -7
-12 -9 -4 -14 -3 -11 2 3 5 -1 12 -10 15 -8 3 -12 10 -9 16 3 5 2 10 -3 10 -5
0 -14 -10 -19 -22 -10 -22 -10 -22 -10 4 0 15 3 26 6 23 4 -2 13 0 21 5 13 8
12 12 -5 24 -17 12 -21 12 -31 -3 -12 -15 -13 -15 -19 1 -5 14 -11 15 -25 8
-25 -14 -37 -13 -22 2 7 7 12 17 12 22 0 6 -5 3 -11 -7 -6 -9 -14 -15 -19 -12
-4 3 -10 -2 -14 -10 -3 -8 -12 -12 -21 -9 -8 3 -12 11 -8 18 3 6 3 8 -2 4 -4
-4 -14 -3 -21 3 -8 7 -14 6 -20 -2 -4 -8 -3 -9 4 -5 7 4 12 2 12 -3 0 -6 -6
-11 -12 -11 -9 0 -8 -4 2 -10 12 -8 10 -10 -10 -10 -22 -1 -23 -2 -7 -11 19
-11 23 -29 6 -29 -5 0 -8 4 -5 9 3 5 -1 12 -10 15 -8 3 -12 11 -9 17 13 20 12
56 -2 56 -16 0 -17 -9 -1 -25 17 -17 2 -15 -30 4 -18 11 -22 12 -10 2 27 -23
8 -30 -20 -8 -14 11 -28 18 -31 15 -3 -4 -1 -9 4 -13 14 -10 17 -32 4 -32 -6
0 -8 -9 -4 -20 4 -12 2 -20 -5 -20 -6 0 -9 4 -6 8 2 4 -5 14 -16 21 -22 14
-22 16 -2 -34 3 -8 1 -15 -5 -15 -6 0 -10 3 -10 8 3 19 -2 30 -17 36 -14 5
-15 4 -4 -9 8 -10 9 -15 1 -15 -6 0 -11 5 -11 12 0 6 -3 8 -7 4 -5 -4 -8 -13
-8 -19 0 -17 -48 -14 -53 3 -3 12 -1 12 6 2 7 -10 14 -9 33 6 20 17 21 22 10
36 -9 10 -10 16 -2 16 6 0 11 -4 11 -9 0 -5 7 -12 16 -15 10 -4 13 -2 8 6 -5
7 -3 8 6 3 9 -6 11 -4 5 6 -8 12 -6 12 8 0 14 -11 17 -11 17 0 0 11 3 11 11
-1 9 -12 10 -12 5 3 -3 10 -6 22 -6 25 0 4 -4 0 -10 -8 -5 -8 -12 -11 -16 -8
-4 4 1 19 10 33 9 14 14 25 12 25 -3 0 -16 -16 -30 -36 -13 -19 -27 -31 -30
-25 -4 5 -2 12 4 16 5 3 15 16 20 28 10 20 10 20 -3 5 -8 -10 -18 -14 -22 -10
-5 4 -5 2 -1 -5 10 -18 -34 -39 -45 -22 -4 7 -5 17 -3 21 3 4 0 8 -6 8 -7 0
-9 -8 -5 -19 6 -20 -3 -21 -37 -7 -10 5 -23 6 -30 3 -8 -4 -7 -6 4 -6 11 -1
15 -6 12 -15 -3 -8 -1 -17 5 -21 7 -3 8 0 5 9 -3 9 -2 16 3 16 5 0 10 -6 10
-12 0 -7 4 -22 8 -33 5 -16 5 -17 -4 -5 -15 21 -25 5 -10 -18 13 -21 5 -57
-10 -48 -5 4 -12 1 -14 -4 -3 -6 -4 -5 -2 2 1 7 8 12 14 10 6 -1 11 8 11 20 0
20 -1 20 -18 5 -10 -10 -23 -17 -28 -17 -4 0 2 7 14 16 19 13 20 18 10 37 -7
12 -11 27 -10 33 3 14 -26 26 -41 17 -7 -4 -8 0 -4 13 7 19 7 19 -8 0 -8 -11
-18 -17 -21 -13 -4 4 -1 14 7 24 8 9 9 14 2 10 -6 -4 -13 -4 -16 0 -2 5 -3 3
-1 -3 1 -6 -3 -17 -9 -23 -8 -8 -8 -11 2 -11 7 0 10 -4 7 -8 -3 -5 1 -9 9 -9
8 0 15 5 15 11 0 5 7 1 15 -10 13 -16 14 -16 9 -2 -4 11 -1 18 7 18 7 0 10 -3
6 -6 -3 -4 1 -20 9 -35 13 -26 13 -30 -1 -35 -9 -4 -19 -4 -22 0 -4 3 1 6 10
6 10 0 14 5 11 15 -4 8 -10 15 -16 15 -5 0 -6 -5 -2 -12 5 -8 2 -9 -9 -5 -10
4 -20 0 -26 -11 -9 -14 -11 -14 -12 -2 -1 8 -1 19 0 24 1 5 -5 6 -13 3 -9 -4
-20 1 -25 11 -6 9 -11 12 -11 6 0 -6 11 -24 25 -40 30 -35 26 -44 -6 -12 -25
25 -29 31 -29 49 0 5 -4 8 -10 4 -5 -3 -7 -12 -3 -20 3 -8 0 -15 -6 -15 -6 0
-10 3 -10 8 4 24 -3 23 -16 -2 -18 -33 -19 -56 -5 -56 6 0 10 8 8 17 -4 24 46
27 64 5 11 -15 11 -15 -2 -6 -8 6 -25 11 -38 12 -19 1 -21 -2 -12 -13 6 -8 9
-19 6 -24 -4 -5 -2 -12 4 -16 9 -6 14 7 11 28 0 4 4 7 10 7 6 0 8 -9 4 -22 -5
-20 -4 -21 7 -8 18 22 113 21 113 0 0 -8 -6 -14 -12 -12 -7 1 -13 -2 -13 -8 0
-13 23 -13 37 1 8 8 17 8 32 0 14 -8 21 -8 21 -1 0 5 -5 10 -11 10 -5 0 -7 5
-4 10 9 15 21 12 23 -5 1 -8 3 -21 4 -29 1 -8 10 -14 20 -13 22 2 24 13 3 21
-8 3 -15 11 -14 18 0 10 2 10 6 0 2 -6 9 -10 14 -6 5 3 10 2 10 -3 6 -36 5
-54 -4 -60 -6 -3 -7 -1 -3 5 3 6 2 13 -3 16 -20 13 -21 -14 -2 -31 17 -14 18
-20 8 -32 -11 -14 -10 -14 6 -2 12 9 14 17 7 26 -12 14 -3 25 19 25 12 0 13
-2 3 -9 -10 -6 -10 -10 1 -19 12 -10 14 -8 11 13 -2 22 1 25 19 19 19 -6 20
-5 8 9 -15 19 -8 47 11 47 10 0 9 -3 -1 -9 -9 -6 -11 -15 -6 -27 5 -11 8 -21
7 -24 0 -3 8 -17 19 -30 15 -20 18 -21 12 -5 -6 18 -5 18 10 6 14 -11 15 -17
5 -30 -12 -14 -11 -14 4 -2 10 7 18 10 18 7 0 -4 13 2 29 14 16 11 32 16 35
11 4 -5 0 -11 -6 -14 -7 -2 -9 -8 -5 -13 4 -5 12 -2 18 6 8 13 12 12 24 -4 8
-11 15 -15 15 -9 0 7 -4 15 -10 18 -5 3 -10 11 -10 17 0 7 5 7 14 -1 20 -16
45 -4 39 20 -4 16 -8 17 -20 8 -11 -10 -11 -14 -1 -20 9 -6 9 -9 1 -9 -6 0
-14 4 -18 9 -3 6 -14 8 -25 6 -11 -2 -20 2 -20 8 0 7 -4 6 -10 -3 -9 -13 -10
-13 -10 0 0 13 -1 13 -10 0 -9 -13 -10 -13 -10 0 0 13 -2 13 -11 0 -9 -13 -10
-13 -6 2 3 9 -1 19 -9 22 -24 9 -27 7 -15 -8 9 -11 9 -16 0 -22 -8 -5 -9 -3
-4 6 6 9 4 11 -5 5 -9 -6 -11 -4 -5 5 5 8 4 11 -1 7 -6 -3 -15 3 -22 14 -7 11
-8 19 -2 19 5 0 10 -5 10 -11 0 -6 7 -8 15 -5 37 15 50 18 37 8 -11 -7 -11
-10 2 -15 12 -5 16 0 17 16 1 21 2 19 15 -22 4 -11 7 -11 21 0 9 8 14 9 10 3
-4 -7 0 -14 8 -18 8 -3 17 -1 20 4 3 4 -1 11 -7 13 -10 4 -10 6 0 6 7 1 10 5
7 11 -3 5 -1 10 5 10 7 0 10 -7 7 -15 -7 -17 9 -30 18 -15 4 6 10 8 15 5 14
-9 23 15 11 29 -8 9 -7 13 2 13 15 0 20 -34 6 -42 -5 -4 -9 -14 -9 -23 1 -16
1 -16 13 0 12 15 14 15 25 -3 7 -11 18 -17 24 -13 7 4 5 10 -6 16 -9 5 -16 14
-16 19 0 6 7 3 16 -6 13 -13 19 -13 33 -3 14 12 15 11 2 -4 -8 -11 -9 -18 -3
-18 6 0 14 5 17 10 3 6 10 10 16 10 5 0 1 -8 -8 -18 -10 -11 -21 -17 -25 -15
-4 2 -9 -1 -13 -7 -4 -6 -11 -7 -17 -4 -7 4 -8 2 -4 -4 4 -7 2 -12 -3 -12 -6
0 -11 4 -11 9 0 6 -9 8 -20 6 -14 -3 -18 0 -14 8 5 8 2 8 -7 -1 -19 -17 1 -29
44 -27 18 2 37 -2 43 -6 8 -6 14 -4 18 6 3 10 11 13 18 9 10 -6 10 -4 0 8 -17
21 3 35 24 17 12 -10 20 -8 42 12 15 13 21 17 15 9 -20 -22 -15 -32 8 -19 15
8 19 8 15 0 -4 -6 -2 -11 4 -11 6 0 9 -4 5 -9 -3 -6 4 -9 15 -8 11 1 20 7 20
15 0 7 -5 10 -10 7 -14 -9 -25 24 -12 37 8 8 9 5 5 -10 -4 -18 -1 -20 21 -16
15 2 26 0 26 -6 0 -6 -4 -8 -10 -5 -5 3 -10 -1 -10 -9 0 -20 1 -20 47 5 21 11
31 15 23 7 -14 -12 -16 -21 -11 -45 1 -5 8 3 16 17 9 15 14 19 15 10 0 -13 2
-13 9 -1 7 10 9 7 8 -11 -1 -13 -7 -25 -14 -25 -6 0 -9 7 -6 16 4 14 4 14 -6
1 -15 -21 -14 -33 3 -27 22 9 27 -5 8 -21 -9 -8 -4 -6 12 3 28 17 29 17 22 -1
-6 -15 -5 -16 5 -7 10 10 9 17 -5 32 -11 12 -14 21 -7 26 7 4 8 12 2 23 -7 14
-5 18 9 18 13 0 16 -4 9 -12 -15 -18 32 -45 55 -32 14 8 17 7 12 -1 -4 -6 -2
-11 3 -11 6 0 11 -4 11 -8 0 -5 -7 -9 -15 -9 -8 0 -12 4 -9 9 3 4 0 8 -5 8 -6
0 -11 -5 -11 -11 0 -6 -5 -9 -11 -7 -6 2 -10 7 -9 12 2 12 -22 26 -33 19 -5
-3 1 -11 12 -19 11 -8 18 -21 15 -28 -3 -8 -1 -17 5 -21 7 -3 8 0 5 9 -10 25
5 19 17 -7 8 -19 9 -18 4 7 -5 25 -4 28 9 17 12 -10 19 -6 43 31 15 24 26 47
24 53 -1 5 1 6 5 2 11 -10 14 -38 4 -32 -16 10 -18 -24 -3 -37 14 -11 16 -11
10 4 -3 10 -3 17 1 17 21 -3 32 2 26 13 -5 7 -3 8 6 3 10 -6 9 -11 -5 -22 -11
-7 -15 -13 -9 -13 5 0 3 -4 -5 -9 -8 -5 -23 -8 -35 -7 -12 1 -29 -6 -38 -16
-10 -10 -14 -18 -9 -18 6 0 13 5 16 11 4 6 13 8 21 5 8 -3 14 0 14 7 0 7 8 3
17 -8 13 -16 15 -17 10 -2 -4 11 -1 17 8 17 8 0 19 8 24 18 8 13 10 14 11 2 0
-13 1 -13 10 0 8 13 11 13 26 -2 16 -16 16 -16 -2 -14 -10 2 -23 0 -29 -4 -5
-5 -14 -8 -20 -9 -5 0 -11 -7 -11 -16 -2 -13 -1 -13 3 0 2 8 8 13 13 10 5 -3
7 -13 4 -23 -5 -14 -4 -15 5 -2 7 10 11 11 11 3 0 -7 5 -13 12 -13 6 0 3 9 -7
20 -18 20 -17 20 19 20 32 0 36 3 33 22 -2 13 -2 17 0 9 4 -11 7 -11 13 -1 5
8 8 4 7 -13 -1 -14 -5 -23 -9 -21 -7 5 -3 -44 4 -52 3 -3 8 2 12 11 3 9 2 13
-4 10 -11 -7 -14 8 -3 19 4 3 17 -6 29 -21 22 -27 23 -27 40 -11 15 14 15 18
4 18 -12 0 -13 2 -1 9 9 6 10 11 2 15 -6 4 -11 2 -11 -5 0 -9 -4 -9 -15 1 -8
6 -19 9 -24 6 -18 -11 -21 11 -4 25 14 12 16 12 9 0 -6 -9 -5 -12 5 -9 8 3 13
11 11 17 -1 6 2 11 8 11 14 0 13 -13 -2 -28 -7 -7 -8 -12 -2 -12 5 0 15 5 21
11 13 13 29 5 43 -21 9 -16 7 -18 -10 -15 -17 3 -19 1 -9 -16 6 -11 16 -18 22
-16 19 6 15 50 -7 77 -20 23 -20 24 -1 10 11 -8 23 -19 27 -25 4 -5 11 -10 15
-11 4 0 16 -4 26 -8 10 -5 23 -3 31 3 7 6 16 8 20 4 4 -4 4 0 0 10 -3 9 -2 17
3 17 5 0 9 -9 10 -21 2 -16 -2 -19 -15 -14 -12 4 -14 3 -6 -5 11 -11 47 -3 39
9 -2 4 2 8 10 8 19 0 19 -5 0 -23 -22 -23 -18 -35 10 -30 25 5 30 -2 25 -34
-1 -8 1 -12 6 -8 4 4 14 2 23 -5 13 -10 12 -8 -1 12 -9 13 -14 29 -12 36 4 9
-4 12 -25 10 -17 -1 -28 1 -25 6 3 5 10 7 15 4 5 -4 9 -2 9 4 0 6 10 15 21 22
12 6 19 7 15 1 -3 -5 1 -12 9 -16 8 -3 15 0 15 7 0 6 7 1 16 -11 15 -21 34
-22 34 -1 0 6 -4 7 -10 4 -5 -3 -10 -1 -10 4 0 11 11 14 27 9 5 -2 7 -8 5 -13
-1 -6 7 -11 18 -11 15 0 19 5 15 21 -6 20 -6 20 6 0 7 -11 19 -25 27 -31 13
-9 12 -11 -2 -11 -9 0 -16 5 -16 11 0 6 -5 3 -11 -7 -13 -23 -4 -34 15 -18 11
9 15 8 19 -3 4 -9 -1 -16 -11 -18 -14 -3 -13 -5 5 -10 18 -5 21 -2 17 16 -3
16 1 22 16 22 15 0 18 -5 14 -22 -3 -12 -1 -25 4 -28 6 -3 8 2 5 13 -3 10 1
22 8 27 9 5 11 2 6 -9 -4 -10 -2 -16 6 -14 7 1 11 -4 9 -11 -1 -8 2 -11 8 -7
11 7 -16 55 -32 55 -5 0 -6 5 -3 10 10 16 23 11 30 -11 4 -12 10 -17 14 -12 3
6 18 9 33 7 16 -1 34 4 42 12 16 16 40 19 31 4 -3 -5 -2 -10 2 -10 16 0 34 38
21 46 -7 5 -8 3 -3 -6 5 -9 4 -11 -3 -6 -6 4 -21 2 -33 -5 -15 -8 -19 -8 -15
0 11 18 -9 13 -38 -10 -18 -14 -26 -16 -26 -7 0 10 -3 9 -11 -2 -9 -12 -10
-11 -4 5 3 11 3 16 -1 12 -4 -4 -13 -2 -21 4 -9 9 -13 8 -13 0 0 -6 -6 -10
-12 -9 -7 2 -12 -3 -10 -9 1 -7 -2 -13 -8 -13 -10 0 -14 15 -10 35 1 5 2 17 3
27 1 9 4 15 8 12 4 -2 5 -13 2 -24 -4 -16 -2 -19 11 -14 9 3 13 11 9 18 -4 6
0 5 9 -2 14 -11 18 -10 28 5 9 14 10 14 7 2 -6 -17 10 -39 27 -39 6 0 5 5 -2
12 -7 7 -12 16 -12 22 0 5 7 1 15 -10 9 -12 14 -14 15 -6 0 7 4 10 10 7 5 -3
15 3 22 15 12 19 29 28 27 12 -3 -19 3 -22 22 -11 13 7 19 7 15 1 -3 -6 -2
-13 3 -16 5 -4 13 3 16 15 6 19 8 19 20 3 12 -16 13 -16 24 4 6 12 17 22 24
22 8 0 7 -4 -3 -10 -8 -5 -11 -12 -7 -16 3 -4 13 -1 22 6 12 10 18 10 30 0 9
-7 18 -10 22 -6 4 3 -2 13 -13 21 -16 13 -17 14 -1 9 22 -8 45 -46 25 -42 -7
2 -13 -4 -13 -12 0 -8 -4 -20 -7 -26 -4 -6 -1 -11 7 -11 8 0 13 3 10 5 -3 3 4
12 15 19 11 8 17 19 14 25 -4 6 -1 9 7 6 8 -3 14 -11 14 -18 0 -7 7 -15 15
-17 13 -4 13 -3 0 6 -13 10 -8 15 13 12 4 0 7 4 7 10 0 5 5 7 10 4 8 -5 7 -11
-1 -21 -8 -10 -8 -14 0 -14 6 0 11 5 11 10 0 6 7 10 15 10 18 0 18 5 4 33 -7
12 -8 19 -4 15 4 -4 14 0 22 8 14 13 13 17 -3 30 -18 14 -18 14 3 4 22 -10 27
-41 8 -57 -4 -5 -5 -2 0 6 6 10 4 12 -4 7 -9 -6 -9 -11 -1 -21 7 -8 9 -18 6
-23 -3 -5 1 -9 9 -9 10 0 11 5 5 16 -6 12 -2 19 17 28 22 11 28 9 55 -20 17
-18 28 -27 25 -21 -4 6 2 19 13 29 16 15 22 15 35 5 20 -17 46 4 41 33 -3 24
-23 35 -23 12 0 -8 4 -15 9 -15 4 0 8 -5 8 -11 0 -8 -4 -8 -14 0 -19 16 -37
11 -59 -17 -11 -13 -22 -21 -25 -17 -3 3 4 15 16 28 l22 23 -23 1 c-15 2 -18
0 -8 -6 9 -6 10 -11 2 -15 -6 -4 -11 -2 -11 3 0 6 0 14 0 19 0 4 6 7 13 7 6 0
17 9 24 20 7 11 12 15 13 9 0 -7 16 -10 41 -8 32 2 40 0 35 -11 -7 -18 5 -19
23 -2 11 10 11 8 2 -11 -11 -20 -15 -21 -29 -11 -14 11 -15 11 -5 -1 10 -11 9
-18 -5 -33 -16 -19 -16 -19 6 -6 12 8 22 17 22 22 0 4 5 5 12 1 7 -4 8 -3 4 5
-4 6 -1 14 8 17 8 3 12 12 9 20 -3 8 1 14 10 14 8 0 17 3 20 8 2 4 2 2 1 -5
-2 -7 1 -15 6 -18 6 -4 10 -1 10 4 0 6 7 11 16 11 9 0 12 5 8 13 -6 9 -4 9 7
1 8 -6 28 -11 44 -12 27 -1 28 0 12 12 -16 12 -16 14 -2 20 11 4 14 2 9 -6 -5
-7 -2 -9 9 -5 12 4 14 2 10 -11 -6 -15 -5 -15 11 -3 17 14 17 16 -2 30 -15 12
-18 21 -11 36 9 19 9 19 5 -2 -2 -12 2 -24 10 -27 8 -3 14 -1 14 4 0 6 5 10
11 10 8 0 8 -5 -1 -15 -8 -9 -9 -15 -2 -15 6 0 13 4 16 9 3 4 22 7 42 5 25 -2
41 3 55 17 17 17 19 18 19 2 1 -16 2 -16 16 2 16 19 16 19 9 -5 -7 -22 -6 -23
9 -11 9 7 16 12 17 10 6 -31 6 -40 -2 -45 -5 -3 -9 3 -9 13 0 15 -2 16 -10 3
-5 -8 -15 -15 -22 -15 -7 -1 -12 -7 -10 -14 1 -7 -3 -11 -10 -9 -7 3 -12 15
-12 26 2 26 -4 27 -28 5 -10 -9 -33 -18 -51 -20 -17 -2 -38 -4 -44 -5 -7 -1
-13 -5 -13 -10 0 -4 -10 -7 -21 -5 -12 1 -24 -4 -26 -10 -3 -7 0 -13 7 -13 6
0 8 4 5 10 -3 5 -1 10 4 10 6 0 11 -5 11 -11 0 -8 5 -8 15 1 12 10 18 10 30 0
8 -7 15 -9 15 -4 0 13 49 34 55 24 3 -5 -1 -10 -7 -13 -7 -2 -10 -8 -5 -12 10
-12 19 0 21 26 0 12 7 24 14 27 7 2 10 -2 6 -11 -7 -18 24 -31 41 -17 10 8 16
6 24 -7 6 -10 11 -13 11 -7 0 5 -5 15 -12 22 -7 7 -8 12 -3 12 15 0 31 -13 39
-30 3 -8 4 -3 1 13 -5 25 -4 26 14 15 16 -10 23 -9 39 5 10 9 22 14 25 11 4
-4 -1 -13 -11 -21 -15 -13 -15 -13 5 -3 12 5 28 19 36 31 8 11 18 16 21 11 3
-5 -3 -17 -14 -27 -11 -10 -20 -22 -20 -28 0 -5 14 7 32 27 30 34 65 53 38 21
-14 -17 -8 -28 15 -31 8 -1 13 2 9 7 -3 5 -10 7 -15 4 -5 -4 -9 -2 -9 4 0 17
22 24 32 10 6 -10 7 -6 2 11 -6 23 -5 24 10 11 15 -13 19 -13 26 -1 5 8 6 18
4 22 -3 4 -1 8 4 8 18 0 20 -13 6 -35 -12 -18 -12 -25 -3 -31 7 -4 9 -3 6 3
-3 5 1 19 9 31 11 17 19 20 33 13 9 -5 23 -6 31 -1 7 4 19 6 26 3 6 -2 15 1
19 6 3 6 9 9 13 7 4 -2 8 7 8 20 1 13 -2 24 -8 24 -5 0 -7 4 -3 10 3 5 11 7
19 4 15 -6 17 -34 3 -34 -5 0 -4 -6 2 -13 6 -8 8 -17 4 -21 -4 -4 1 -4 11 0
10 4 13 9 7 13 -15 10 -7 42 14 57 23 17 46 18 43 2 -2 -7 6 -13 17 -14 15 -1
16 0 2 3 -9 3 -15 9 -12 14 4 5 -6 14 -21 19 -26 10 -26 11 -8 33 12 14 13 17
3 9 -9 -6 -18 -9 -22 -6 -8 8 -3 -18 7 -34 6 -10 1 -11 -21 -7 -20 4 -23 3 -9
-3 11 -5 15 -11 10 -15 -13 -7 -28 2 -42 28 -11 19 -12 19 -9 -4 1 -13 -4 -26
-12 -29 -9 -3 -11 0 -6 8 5 8 1 18 -10 26 -15 11 -20 10 -36 -9 -10 -12 -18
-17 -19 -10 0 6 5 15 10 18 6 3 10 12 10 18 0 7 -9 1 -19 -13 l-19 -24 -38 39
c-35 37 -40 32 -6 -7 9 -11 11 -18 4 -18 -6 0 -18 10 -26 22 -13 18 -16 19
-16 5 0 -9 -5 -17 -11 -17 -5 0 -7 4 -4 10 3 6 -1 7 -10 4 -11 -5 -14 -2 -9
12 5 15 4 16 -4 4 -6 -8 -8 -18 -6 -22 7 -11 -4 -10 -28 3 -13 7 -18 7 -14 1
3 -6 2 -13 -4 -17 -9 -6 -14 7 -11 28 0 4 -3 7 -9 7 -5 0 -10 -7 -10 -15 0 -8
-5 -15 -11 -15 -5 0 -7 4 -4 10 4 6 -1 7 -11 3 -11 -4 -15 -3 -10 5 3 6 2 13
-3 17 -6 3 -8 -6 -5 -21 4 -23 3 -25 -10 -15 -8 7 -12 20 -9 29 4 13 2 12 -11
-3 -17 -20 -17 -20 -11 2 4 15 2 21 -9 19 -9 -1 -19 -6 -23 -11 -4 -4 -2 -5 5
-1 7 4 12 1 12 -8 0 -21 -13 -20 -33 2 -22 24 -21 33 1 26 14 -5 15 -4 2 5
-24 17 -36 -5 -15 -29 16 -18 16 -20 1 -26 -9 -3 -14 -9 -12 -13 2 -3 -2 -17
-10 -31 -12 -21 -14 -22 -12 -5 2 11 8 24 13 28 6 5 1 7 -10 5 -13 -3 -19 -11
-18 -23 1 -11 0 -14 -3 -7 -3 6 -10 10 -15 6 -5 -3 -8 0 -7 7 2 6 -3 14 -11
17 -8 2 -11 0 -8 -5 8 -13 -10 -39 -20 -29 -4 5 -2 11 5 13 10 4 10 8 1 19 -6
8 -8 14 -4 14 3 0 -3 12 -14 26 -11 15 -18 31 -14 37 3 6 1 7 -5 3 -6 -4 -8
-14 -5 -24 6 -15 4 -15 -9 -4 -14 11 -17 10 -23 -8 -3 -11 -11 -18 -16 -14 -5
3 -7 10 -4 15 4 5 0 12 -9 15 -19 7 -73 -21 -57 -30 6 -4 11 -2 11 3 0 6 5 11
11 11 5 0 7 -5 3 -12 -4 -6 -3 -8 4 -4 6 3 13 2 17 -4 4 -6 11 -8 16 -5 5 4 9
1 9 -4 0 -6 -5 -11 -12 -11 -6 0 -9 -2 -6 -5 9 -10 38 7 31 18 -3 6 -1 7 5 3
22 -14 1 -34 -31 -31 -29 4 -30 3 -13 -10 18 -13 18 -14 -2 -12 -11 0 -18 5
-16 9 3 4 0 9 -5 9 -26 3 -30 4 -37 12 -4 4 -14 7 -23 7 -12 0 -11 -3 4 -14
20 -15 29 -46 13 -46 -6 0 -8 7 -4 15 7 19 -27 38 -41 24 -16 -16 -27 9 -12
27 10 13 8 14 -19 9 l-31 -5 5 252 c2 139 6 300 8 358 2 58 7 211 12 340 8
262 11 330 13 345 0 6 33 10 84 8 96 -2 263 -12 292 -16 49 -9 137 86 162 173
6 20 6 80 1 105 -13 54 -22 81 -31 86 -5 4 -10 61 -11 130 -1 138 -3 134 75
183 90 57 122 186 74 294 -25 54 -40 65 -105 75 -19 3 -73 14 -119 23 -83 18
-84 18 -61 36 12 10 28 18 35 18 7 0 15 3 17 8 2 4 37 29 78 57 102 68 227
194 295 298 l56 86 4 188 c3 104 6 251 9 328 2 77 5 184 6 239 l3 98 66 -7
c36 -3 80 -8 96 -11 17 -2 50 -6 75 -9 25 -2 45 -4 45 -5 0 -8 52 -5 57 4 4 6
31 81 59 166 28 85 60 181 71 212 23 64 19 62 108 38 25 -7 52 -13 60 -15 8
-2 26 -8 40 -13 14 -5 30 -10 35 -10 6 -1 29 -6 53 -13 23 -6 45 -9 48 -7 4 5
38 113 49 158 2 8 13 47 25 85 13 39 23 75 25 80 1 6 8 30 15 55 7 25 15 51
17 58 7 28 10 38 16 52 7 18 27 93 26 100 0 3 5 19 11 35 7 17 13 37 15 45 2
8 18 62 35 120 18 58 33 112 35 120 2 8 16 53 30 100 15 47 29 94 32 105 3 11
25 85 49 165 24 80 44 152 44 161 0 14 -43 40 -75 45 -5 1 -37 10 -70 20 -33
10 -62 18 -65 19 -3 0 -11 4 -17 8 -7 5 -13 6 -13 2 0 -3 -9 -1 -21 5 -20 11
-20 17 -14 158 4 81 8 181 10 222 l3 76 -91 43 c-139 66 -140 66 -123 99 8 15
28 70 44 122 35 112 42 135 56 213 3 12 5 22 6 22 5 0 13 146 13 225 1 164
-25 314 -73 425 -11 25 -19 46 -19 48 1 1 -11 29 -26 62 -14 33 -26 62 -27 65
0 3 -9 17 -19 32 -10 14 -19 31 -19 37 0 6 -3 11 -8 11 -4 0 -16 17 -27 37
-11 20 -24 41 -30 47 -5 6 -30 38 -54 71 -51 69 -242 262 -316 321 -27 21 -59
47 -70 57 -11 10 -32 26 -47 35 -16 9 -28 20 -28 24 0 4 -5 8 -10 8 -6 0 -38
20 -72 45 -34 25 -68 45 -75 45 -7 0 -13 5 -13 10 0 6 -7 10 -15 10 -8 0 -15
5 -15 10 0 6 -4 10 -9 10 -5 0 -38 17 -72 38 -118 72 -515 261 -579 277 -3 0
-41 15 -85 32 -44 17 -116 43 -160 58 -44 15 -87 30 -95 33 -8 3 -19 6 -25 7
-5 2 -39 13 -75 25 -36 12 -73 24 -84 26 -10 2 -44 11 -75 20 -31 10 -63 19
-72 20 -9 2 -68 17 -130 33 -63 17 -125 32 -139 35 -14 3 -34 7 -45 9 -35 8
-179 39 -202 43 -13 2 -35 6 -50 9 -16 3 -41 8 -58 10 -29 5 -51 9 -105 20
-14 3 -43 7 -65 10 -74 10 -110 15 -135 20 -14 3 -47 8 -75 10 -27 3 -63 8
-79 11 -15 2 -51 7 -79 9 -28 3 -67 7 -87 9 -35 5 -93 10 -240 22 -41 3 -97 8
-125 10 -59 5 -842 14 -847 9z m-2802 -2070 c7 -2 10 -120 9 -382 -1 -346 -2
-381 -19 -418 -34 -74 -28 -218 14 -310 31 -68 37 -97 34 -150 -2 -32 -6 -137
-9 -234 -4 -97 -8 -212 -10 -256 -2 -44 -4 -104 -4 -133 l-1 -52 -32 1 c-58 2
-132 22 -152 40 -11 11 -23 19 -26 19 -7 0 -52 76 -50 85 1 3 -2 24 -6 48 -11
65 -11 109 2 122 7 6 33 10 58 9 25 -1 47 1 47 4 3 13 7 119 13 347 4 127 9
291 11 365 6 168 15 469 19 658 2 79 0 143 -5 143 -5 1 -13 3 -19 4 -5 1 -26
3 -46 4 l-37 1 7 42 c4 22 9 45 12 49 4 7 165 2 190 -6z m7189 -1045 c43 -11
82 -23 86 -28 4 -4 11 -27 14 -52 14 -93 16 -87 -31 -99 -24 -6 -52 -11 -63
-11 -22 0 -48 -33 -54 -65 -1 -11 -6 -26 -10 -32 -5 -7 -5 -17 -2 -23 3 -5 2
-10 -3 -10 -5 0 -9 -6 -9 -12 0 -7 -12 -51 -27 -98 -16 -47 -30 -96 -33 -109
-2 -14 -6 -28 -8 -31 -4 -7 -103 -321 -110 -350 -2 -8 -16 -53 -30 -100 -25
-80 -38 -122 -65 -215 -7 -22 -23 -74 -37 -115 -13 -41 -26 -82 -28 -90 -2 -8
-9 -30 -14 -49 -6 -19 -10 -35 -8 -36 42 -26 97 -71 97 -80 0 -7 -6 -25 -14
-41 -8 -16 -24 -50 -35 -75 l-19 -47 -89 5 c-79 4 -127 8 -144 12 -11 2 -5
611 7 619 6 4 17 25 26 47 14 35 37 87 83 190 98 218 122 275 117 275 -4 0 -2
4 3 8 6 4 15 18 21 32 40 86 64 141 64 145 0 3 18 43 40 90 22 47 40 87 40 89
0 2 16 39 36 83 20 43 47 102 60 131 13 29 24 57 24 63 0 6 8 8 18 5 9 -3 53
-14 97 -26z m-2905 -5799 c0 -4 -9 -7 -20 -7 -20 0 -25 7 -14 19 7 7 34 -2 34
-12z m-728 -9 c5 -5 2 -14 -7 -22 -12 -10 -15 -10 -15 0 0 8 -3 10 -7 7 -8 -9
-34 13 -28 24 6 9 45 3 57 -9z m141 6 c3 -10 7 -10 20 1 10 7 17 12 18 10 5
-24 4 -51 -2 -55 -5 -2 -6 -11 -3 -18 7 -18 -12 -30 -22 -15 -5 8 -3 9 6 4 10
-6 12 -4 7 7 -3 9 0 21 6 27 8 8 8 11 0 11 -6 0 -17 -10 -25 -22 -11 -17 -16
-19 -23 -8 -5 9 -4 11 3 6 7 -4 12 -3 12 3 0 5 -4 12 -9 16 -11 6 -10 45 0 45
4 0 9 -6 12 -12z m115 -5 c0 -10 3 -27 7 -38 l7 -20 -14 20 c-16 21 -20 55 -7
55 4 0 7 -8 7 -17z m62 7 c0 -5 -7 -10 -16 -10 -8 0 -12 5 -9 10 3 6 10 10 16
10 5 0 9 -4 9 -10z m56 -1 c4 -8 9 -8 17 0 14 14 27 14 27 -1 0 -6 -3 -8 -7
-5 -11 11 -32 -13 -27 -31 4 -13 3 -13 -6 2 -10 14 -14 15 -20 5 -7 -10 -11
-10 -24 0 -13 11 -16 11 -16 -3 0 -9 -4 -16 -10 -16 -15 0 -7 22 15 42 23 20
41 23 51 7z m465 -28 c-5 -9 -7 -21 -4 -27 2 -6 -3 -11 -11 -11 -8 0 -12 6 -8
15 4 11 1 13 -9 8 -8 -4 -3 2 10 13 13 12 18 21 12 21 -7 0 -9 5 -5 11 10 17
24 -12 15 -30z m-558 8 c4 -16 3 -18 -9 -8 -7 6 -11 15 -8 20 8 13 11 11 17
-12z m2124 -14 c0 -11 -4 -12 -14 -4 -7 6 -13 13 -13 15 0 2 6 4 13 4 8 0 14
-7 14 -15z m-1617 -5 c0 -5 -5 -10 -11 -10 -5 0 -7 5 -4 10 3 6 8 10 11 10 2
0 4 -4 4 -10z m1703 -10 c7 -8 8 -11 1 -7 -7 4 -15 0 -18 -9 -3 -8 -2 -12 4
-9 6 3 10 1 10 -4 0 -6 -7 -11 -15 -11 -8 0 -15 -4 -15 -10 0 -5 -5 -10 -10
-10 -6 0 -3 11 6 25 15 23 15 25 0 31 -9 3 -16 10 -16 15 0 13 38 5 53 -11z
m-2155 -12 c-2 -7 4 -13 12 -13 8 0 14 7 12 15 -2 8 0 11 4 7 15 -14 12 -34
-5 -34 -21 0 -42 17 -35 28 8 13 14 11 12 -3z m97 2 c3 -5 1 -10 -4 -10 -6 0
-11 5 -11 10 0 6 2 10 4 10 3 0 8 -4 11 -10z m285 0 c0 -5 -5 -10 -11 -10 -5
0 -7 5 -4 10 3 6 8 10 11 10 2 0 4 -4 4 -10z m1940 -2 c0 13 24 10 43 -6 8 -7
18 -9 21 -4 6 10 36 9 53 -1 6 -4 14 -4 17 1 8 14 101 8 120 -7 13 -11 16 -11
16 0 0 11 2 11 10 -1 5 -8 10 -11 10 -7 0 4 9 3 19 -2 14 -8 22 -7 31 4 16 20
44 20 36 0 -3 -9 3 -19 14 -25 29 -16 9 -52 -25 -46 -14 3 -25 0 -25 -6 0 -7
-5 -6 -14 1 -8 6 -20 10 -27 9 -8 -2 -13 3 -11 10 3 17 -13 15 -28 -3 -7 -8
-9 -15 -6 -15 4 0 4 -5 0 -11 -4 -8 -9 -8 -17 0 -7 7 -14 7 -24 0 -17 -15 -18
11 0 31 10 12 9 12 -4 2 -9 -7 -25 -9 -35 -6 -18 6 -18 6 -1 -8 17 -12 17 -16
4 -27 -10 -8 -17 -8 -21 -2 -4 6 -13 8 -21 5 -8 -4 -13 -10 -10 -14 3 -5 1
-11 -4 -14 -5 -4 -12 -2 -16 4 -4 6 -15 4 -31 -6 -30 -20 -53 -6 -48 32 2 19
-1 24 -12 20 -8 -3 -14 -1 -14 3 0 18 24 17 43 -2 28 -28 34 -12 6 17 -22 22
-25 23 -51 10 -31 -16 -62 -8 -54 13 3 8 6 17 6 20 0 3 7 0 15 -7 18 -15 20 1
3 18 -9 9 -9 12 1 12 7 0 9 5 5 13 -5 8 -2 8 9 -2 10 -7 17 -9 17 -3z m-2806
-13 c3 -8 1 -15 -4 -15 -6 0 -10 7 -10 15 0 8 2 15 4 15 2 0 6 -7 10 -15z
m188 -2 c-6 -2 -9 -10 -6 -15 4 -7 2 -8 -4 -4 -18 11 -14 26 6 25 10 0 12 -3
4 -6z m78 -3 c0 -5 -5 -10 -11 -10 -5 0 -7 5 -4 10 3 6 8 10 11 10 2 0 4 -4 4
-10z m140 2 c0 -4 -10 -9 -22 -9 -18 -2 -20 0 -8 7 18 12 30 13 30 2z m305 -2
c-3 -5 -12 -10 -18 -10 -7 0 -6 4 3 10 19 12 23 12 15 0z m239 2 c3 -5 -1 -9
-9 -9 -8 0 -12 4 -9 9 3 4 7 8 9 8 2 0 6 -4 9 -8z m1443 2 c-3 -3 -12 -4 -19
-1 -8 3 -5 6 6 6 11 1 17 -2 13 -5z m8 -23 c3 -5 2 -12 -3 -15 -5 -3 -9 1 -9
9 0 17 3 19 12 6z m-2185 -16 c-14 -17 -30 -20 -30 -4 0 5 4 8 9 4 5 -3 12 -1
16 5 3 5 9 10 12 10 3 0 0 -7 -7 -15z m807 0 c0 -8 -4 -12 -9 -9 -5 3 -6 10
-3 15 9 13 12 11 12 -6z m-682 -5 c3 -5 1 -10 -4 -10 -6 0 -11 5 -11 10 0 6 2
10 4 10 3 0 8 -4 11 -10z m2295 0 c0 -5 -2 -10 -4 -10 -3 0 -8 5 -11 10 -3 6
-1 10 4 10 6 0 11 -4 11 -10z m66 -2 c4 -6 3 -8 -4 -4 -5 3 -13 0 -15 -6 -3
-8 -6 -6 -6 5 -1 19 14 23 25 5z m-2425 -21 c-8 -8 -14 -7 -23 2 -11 10 -9 11
6 5 15 -6 17 -4 11 6 -6 9 -4 11 4 5 9 -5 10 -10 2 -18z m329 9 c0 -3 -4 -8
-10 -11 -5 -3 -10 -1 -10 4 0 6 5 11 10 11 6 0 10 -2 10 -4z m35 -6 c3 -5 1
-10 -4 -10 -6 0 -11 5 -11 10 0 6 2 10 4 10 3 0 8 -4 11 -10z m61 -2 c3 -4 -1
-5 -10 -4 -8 1 -18 5 -22 8 -3 4 1 5 10 4 8 -1 18 -5 22 -8z m1841 -3 c0 -8
-4 -12 -9 -9 -5 3 -6 10 -3 15 9 13 12 11 12 -6z m40 9 c-3 -3 -12 -4 -19 -1
-8 3 -5 6 6 6 11 1 17 -2 13 -5z m83 -3 c0 -6 -4 -12 -8 -15 -5 -3 -9 1 -9 9
0 8 4 15 9 15 4 0 8 -4 8 -9z m80 -13 c0 -6 -8 -4 -17 3 -15 12 -16 12 -10 -3
3 -10 2 -18 -3 -18 -11 0 -14 23 -4 33 8 8 34 -3 34 -15z m-2557 -2 c6 -14 -1
-26 -14 -26 -4 0 -7 9 -6 20 1 23 12 26 20 6z m182 -4 c-3 -3 -11 0 -18 7 -9
10 -8 11 6 5 10 -3 15 -9 12 -12z m152 -9 c0 -9 -4 -10 -14 -2 -7 6 -13 12
-13 14 0 1 6 2 13 2 8 0 14 -6 14 -14z m243 7 c0 -5 -2 -10 -4 -10 -3 0 -8 5
-11 10 -3 6 -1 10 4 10 6 0 11 -4 11 -10z m1820 6 c0 -2 -7 -7 -16 -10 -8 -3
-12 -2 -9 4 6 10 25 14 25 6z m105 -6 c-3 -5 -12 -10 -18 -10 -7 0 -6 4 3 10
19 12 23 12 15 0z m-490 -9 c3 -5 2 -12 -3 -15 -5 -3 -9 1 -9 9 0 17 3 19 12
6z m-1522 -16 c-3 -9 -8 -14 -10 -11 -3 3 -2 9 2 15 9 16 15 13 8 -4z m127 5
c0 -5 -5 -10 -11 -10 -5 0 -7 5 -4 10 3 6 8 10 11 10 2 0 4 -4 4 -10z m1658
-10 c-15 -24 -24 -25 -31 -6 -4 10 -1 13 7 10 8 -3 17 -1 21 5 3 6 8 11 11 11
2 0 -1 -9 -8 -20z m-1858 -5 c7 -9 8 -15 2 -15 -5 0 -12 7 -16 15 -3 8 -4 15
-2 15 2 0 9 -7 16 -15z m1737 -10 c0 -8 -4 -12 -9 -9 -5 3 -6 10 -3 15 9 13
12 11 12 -6z m31 -10 c-3 -3 -9 2 -12 12 -6 14 -5 15 5 6 7 -7 10 -15 7 -18z
m119 3 c-3 -8 -6 -5 -6 6 -1 11 2 17 5 13 3 -3 4 -12 1 -19z m53 12 c0 -5 -4
-10 -10 -10 -5 0 -10 5 -10 10 0 6 5 10 10 10 6 0 10 -4 10 -10z m-2230 -22
c0 -15 -18 -17 -30 -3 -9 11 -8 14 9 12 12 -1 21 -5 21 -9z m625 3 c3 -5 2
-12 -3 -15 -5 -3 -9 1 -9 9 0 17 3 19 12 6z m145 5 c0 -3 -4 -8 -10 -11 -5 -3
-10 -1 -10 4 0 6 5 11 10 11 6 0 10 -2 10 -4z m1035 -5 c3 -5 2 -12 -3 -15 -5
-3 -9 1 -9 9 0 17 3 19 12 6z m96 -14 c-14 -14 -14 -30 -1 -22 6 3 10 1 10 -5
0 -6 5 -8 12 -4 7 4 8 3 4 -5 -4 -6 -12 -8 -18 -5 -6 4 -14 1 -18 -6 -5 -7 -7
-2 -7 14 0 15 4 29 8 32 5 3 6 10 3 16 -5 7 -2 8 5 3 9 -5 10 -10 2 -18z m43
11 c-3 -4 1 -8 8 -8 8 0 6 -5 -5 -11 -10 -6 -21 -8 -24 -5 -4 3 -1 6 7 6 9 0
10 3 1 13 -8 10 -7 14 4 14 8 0 12 -4 9 -9z m166 2 c0 -5 -4 -10 -10 -10 -5 0
-10 5 -10 10 0 6 5 10 10 10 6 0 10 -4 10 -10z m-1876 -22 c-3 -4 -9 -8 -15
-8 -5 0 -9 4 -9 8 0 5 7 9 15 9 8 0 12 -4 9 -9z m361 -6 c-3 -3 -11 0 -18 7
-9 10 -8 11 6 5 10 -3 15 -9 12 -12z m805 14 c0 -2 -8 -10 -17 -17 -16 -13
-17 -12 -4 4 13 16 21 21 21 13z m940 -6 c-8 -5 -19 -10 -25 -10 -5 0 -3 5 5
10 8 5 20 10 25 10 6 0 3 -5 -5 -10z m-1553 -15 c0 -8 -4 -12 -9 -9 -5 3 -6
10 -3 15 9 13 12 11 12 -6z m1041 -10 c-3 -3 -9 2 -12 12 -6 14 -5 15 5 6 7
-7 10 -15 7 -18z m-343 6 c3 -5 2 -12 -3 -15 -5 -3 -9 1 -9 9 0 17 3 19 12 6z
m100 0 c3 -5 2 -12 -3 -15 -5 -3 -9 1 -9 9 0 17 3 19 12 6z m78 -6 c-3 -9 -8
-14 -10 -11 -3 3 -2 9 2 15 9 16 15 13 8 -4z m140 6 c5 -1 7 -9 5 -18 -2 -10
3 -23 12 -30 9 -8 11 -12 3 -13 -6 0 -15 5 -18 10 -4 7 -12 7 -25 0 -13 -7
-21 -7 -25 1 -4 6 -14 8 -22 5 -8 -3 -11 -2 -8 3 3 5 1 12 -5 16 -5 3 -10 11
-10 18 0 6 7 2 15 -9 13 -17 16 -17 26 -4 9 13 10 12 5 -2 -3 -10 -1 -20 4
-23 12 -8 19 17 9 37 -7 12 -5 15 9 13 9 -2 21 -4 25 -4z m-356 -31 c-1 -21
-10 -18 -13 5 -1 8 2 15 6 15 5 0 8 -9 7 -20z m113 10 c0 -5 -5 -10 -11 -10
-5 0 -7 5 -4 10 3 6 8 10 11 10 2 0 4 -4 4 -10z m-570 -10 c0 -5 -5 -10 -11
-10 -5 0 -7 5 -4 10 3 6 8 10 11 10 2 0 4 -4 4 -10z m1045 0 c3 -5 2 -10 -4
-10 -5 0 -13 5 -16 10 -3 6 -2 10 4 10 5 0 13 -4 16 -10z m-1000 -10 c-3 -5
-14 -10 -23 -9 -14 0 -13 2 3 9 27 11 27 11 20 0z m100 -8 c-3 -3 -11 0 -18 7
-9 10 -8 11 6 5 10 -3 15 -9 12 -12z m-257 -24 c7 -7 12 -16 12 -20 0 -15 -15
-8 -28 12 -13 22 -3 27 16 8z m846 0 c-3 -4 -9 -8 -15 -8 -5 0 -9 4 -9 8 0 5
7 9 15 9 8 0 12 -4 9 -9z m-779 -18 c3 -5 1 -10 -4 -10 -6 0 -11 5 -11 10 0 6
2 10 4 10 3 0 8 -4 11 -10z m530 -10 c-3 -5 -10 -10 -16 -10 -5 0 -9 5 -9 10
0 6 7 10 16 10 8 0 12 -4 9 -10z"/>
<path d="M4724 573 c4 -4 16 -8 28 -10 28 -4 18 6 -12 12 -12 2 -20 1 -16 -2z"/>
<path d="M4935 569 c-4 -6 -13 -8 -21 -5 -8 3 -11 0 -7 -10 5 -13 8 -13 24 2
19 17 23 24 15 24 -3 0 -8 -5 -11 -11z"/>
<path d="M5105 570 c-3 -5 -1 -11 4 -14 5 -4 12 -2 16 4 4 6 12 7 18 4 7 -4 8
-3 4 1 -11 12 -36 15 -42 5z"/>
<path d="M7440 510 c-8 -5 -18 -6 -22 -4 -4 3 -7 -5 -5 -18 1 -18 -2 -22 -18
-20 -15 3 -17 1 -9 -8 12 -12 64 6 64 22 0 5 -4 6 -10 3 -5 -3 -10 -1 -10 4 0
20 15 11 48 -29 34 -41 36 -68 3 -51 -15 8 -17 6 -15 -12 1 -12 3 -24 3 -26 1
-2 8 2 16 9 8 7 15 9 15 5 0 -4 6 -3 13 4 10 8 17 7 27 -2 10 -9 11 -9 6 0 -9
16 27 36 41 22 8 -8 13 -7 18 2 5 7 4 10 -2 6 -6 -4 -14 0 -17 8 -6 17 16 31
33 21 5 -4 12 -2 16 4 4 6 11 8 16 4 6 -3 5 -12 -3 -22 -7 -10 -8 -14 -4 -10
5 4 16 2 25 -4 9 -7 13 -8 8 -3 -7 8 30 55 44 55 4 0 6 -9 4 -20 -2 -12 0 -18
6 -15 5 4 7 10 4 15 -3 5 -1 11 5 15 9 6 14 -8 11 -28 -1 -5 3 -6 9 -2 6 3 8
12 4 18 -3 7 2 3 10 -7 12 -15 16 -16 16 -5 0 12 2 12 10 -1 8 -12 9 -9 6 10
-2 14 -9 24 -16 22 -8 -2 -10 4 -6 15 6 17 5 17 -7 1 -9 -12 -22 -16 -38 -12
-13 3 -29 6 -35 8 -7 1 -19 8 -27 14 -11 9 -17 10 -22 2 -5 -8 -11 -7 -23 2
-13 11 -14 11 -8 0 6 -9 3 -12 -10 -10 -11 2 -22 7 -26 12 -4 6 -12 5 -21 -3
-11 -8 -17 -9 -22 -1 -5 8 -10 8 -20 0 -10 -8 -14 -7 -18 2 -4 10 -6 10 -6 1
-1 -18 -21 -16 -35 2 -7 10 -16 12 -26 5z m106 -37 c-4 -9 -1 -13 6 -11 7 3
14 10 14 16 1 7 2 15 3 18 0 3 11 -2 23 -10 16 -11 25 -13 35 -4 7 6 13 7 13
3 0 -4 6 -2 14 4 10 9 16 8 26 -4 7 -8 16 -12 21 -9 18 11 8 -3 -18 -27 -16
-13 -25 -20 -21 -15 13 15 -12 38 -27 26 -9 -8 -15 -8 -20 0 -4 7 -13 5 -27
-4 -14 -10 -27 -12 -38 -6 -17 9 -30 4 -30 -12 0 -4 3 -7 8 -7 4 1 16 1 27 0
l20 -2 -20 -12 c-11 -6 -22 -12 -25 -12 -3 0 -12 -4 -20 -10 -13 -7 -13 -6 -2
7 15 19 3 50 -26 67 -9 6 -12 11 -6 11 6 0 17 -7 24 -15 7 -8 17 -12 22 -9 5
3 1 13 -9 21 -10 8 -13 12 -6 9 6 -4 14 -2 18 4 9 15 27 1 21 -17z m254 -9 c0
-8 -19 -13 -24 -6 -3 5 1 9 9 9 8 0 15 -2 15 -3z"/>
<path d="M7572 485 c4 -4 3 -14 -4 -22 -8 -11 -7 -12 6 -7 19 7 21 20 4 30 -7
4 -10 4 -6 -1z"/>
<path d="M7656 482 c-3 -6 1 -15 8 -21 8 -7 17 -8 20 -3 3 6 -1 15 -8 21 -8 7
-17 8 -20 3z"/>
<path d="M6723 302 c1 -14 5 -18 11 -12 7 7 6 14 -1 21 -9 9 -12 7 -10 -9z"/>
<path d="M3835 671 c-3 -5 -2 -12 3 -15 5 -3 9 1 9 9 0 17 -3 19 -12 6z"/>
<path d="M4434 665 c1 -8 8 -21 16 -28 12 -10 12 -9 2 4 -6 9 -9 18 -6 21 3 3
1 9 -4 12 -6 3 -9 -1 -8 -9z"/>
<path d="M5175 669 c-4 -6 -5 -12 -2 -15 2 -3 7 2 10 11 7 17 1 20 -8 4z"/>
<path d="M4386 658 c3 -5 10 -6 15 -3 13 9 11 12 -6 12 -8 0 -12 -4 -9 -9z"/>
<path d="M5390 661 c0 -6 4 -13 10 -16 6 -3 7 1 4 9 -7 18 -14 21 -14 7z"/>
<path d="M4114 648 c3 -21 16 -38 29 -38 7 0 4 5 -6 11 -9 6 -15 14 -12 19 3
5 1 11 -4 14 -5 4 -8 0 -7 -6z"/>
<path d="M4229 643 c-13 -16 -12 -17 4 -4 16 13 21 21 13 21 -2 0 -10 -8 -17
-17z"/>
<path d="M4750 656 c0 -2 8 -10 18 -17 15 -13 16 -12 3 4 -13 16 -21 21 -21
13z"/>
<path d="M3879 633 c-13 -16 -12 -17 4 -4 16 13 21 21 13 21 -2 0 -10 -8 -17
-17z"/>
<path d="M4285 640 c-3 -6 1 -7 9 -4 18 7 21 14 7 14 -6 0 -13 -4 -16 -10z"/>
<path d="M4330 646 c0 -2 7 -7 16 -10 8 -3 12 -2 9 4 -6 10 -25 14 -25 6z"/>
<path d="M4468 618 c-34 -45 -43 -63 -31 -55 6 4 16 1 22 -7 9 -10 7 -16 -4
-26 -13 -11 -18 -10 -31 8 -8 12 -20 22 -25 22 -6 0 -3 -10 5 -21 8 -12 12
-29 8 -38 -5 -14 -3 -14 10 -3 13 11 18 11 24 0 4 -7 3 -10 -1 -5 -5 4 -17 -1
-27 -10 -15 -14 -19 -14 -16 -3 2 8 -3 14 -9 12 -7 -1 -13 3 -13 10 0 6 -7 3
-16 -8 -8 -10 -12 -12 -8 -4 7 13 6 13 -11 0 -15 -12 -17 -12 -10 -1 6 10 4
12 -5 6 -9 -6 -11 -4 -5 5 6 9 4 11 -5 5 -8 -5 -11 -4 -6 3 6 11 -24 9 -43 -2
-4 -3 -7 6 -5 19 1 14 -2 25 -8 25 -6 0 -5 6 2 15 7 8 17 15 22 15 6 0 6 -6
-1 -14 -9 -11 -9 -16 0 -22 8 -5 9 -3 4 6 -5 9 -4 11 4 6 6 -4 9 -11 6 -16 -3
-5 -1 -11 5 -15 5 -3 10 -1 10 5 0 6 5 8 10 5 6 -3 10 -2 10 4 0 5 -6 12 -12
14 -10 4 -10 6 0 6 7 1 15 -6 18 -14 6 -14 8 -13 21 2 8 10 11 11 7 3 -7 -13
-5 -13 9 -1 9 7 15 16 13 20 -3 4 4 7 14 7 10 0 16 -5 13 -11 -3 -5 0 -4 8 3
12 11 12 14 -1 22 -8 6 -21 7 -29 5 -8 -3 -26 5 -40 17 -14 13 -20 16 -13 6 8
-10 9 -19 3 -22 -5 -3 -11 -1 -13 5 -3 9 -10 9 -27 -1 -19 -10 -25 -10 -32 1
-4 7 -5 17 -3 21 3 4 0 8 -5 8 -6 0 -11 -4 -11 -9 0 -5 -6 -11 -12 -14 -7 -2
-5 -3 5 -1 10 1 16 -3 14 -9 -2 -7 -11 -11 -20 -11 -9 1 -14 -2 -11 -7 3 -5 0
-9 -5 -9 -11 0 -15 21 -12 49 2 11 0 11 -12 0 -8 -8 -11 -15 -6 -17 15 -6 10
-19 -6 -19 -8 0 -15 5 -15 10 0 5 -7 6 -16 3 -9 -4 -24 -1 -32 6 -12 10 -14
10 -8 1 7 -13 2 -15 -34 -15 -35 0 -41 2 -35 12 4 6 -1 7 -11 3 -14 -5 -13 -8
7 -18 13 -7 28 -11 35 -8 13 5 40 -35 30 -45 -3 -3 -6 0 -6 8 0 10 -3 10 -15
0 -9 -8 -15 -8 -15 -2 0 6 6 12 13 15 7 2 8 8 3 13 -5 5 -11 4 -13 -3 -3 -10
-9 -10 -24 0 -16 10 -21 9 -29 -3 -10 -16 -12 -12 -12 20 0 35 2 41 10 36 5
-3 9 2 9 11 0 12 -5 10 -20 -8 -10 -13 -22 -23 -26 -21 -3 1 -6 -2 -6 -7 0
-19 -15 -24 -16 -5 0 13 -2 14 -6 5 -14 -34 -56 -67 -51 -39 4 17 -42 18 -49
2 -3 -8 -9 -11 -14 -8 -5 3 -9 3 -9 0 0 -3 9 -10 19 -15 16 -9 18 -8 14 7 -3
12 2 18 17 19 11 1 18 -2 15 -7 -13 -21 19 -20 41 1 27 25 33 16 8 -13 -16
-16 -15 -18 0 -24 9 -4 20 -4 23 0 4 3 -1 6 -11 6 -9 0 -15 4 -11 10 3 5 13 6
21 3 13 -5 15 -1 10 14 -4 13 0 25 10 34 15 12 16 11 10 -9 -5 -14 -3 -22 4
-22 7 0 10 -8 7 -19 -3 -13 -1 -18 9 -14 7 2 10 12 6 21 -5 15 -4 15 12 3 17
-14 16 -16 -6 -32 -12 -10 -19 -21 -15 -25 4 -4 7 -2 7 4 0 7 4 12 10 12 5 0
7 -8 4 -17 -5 -15 -4 -15 4 -3 6 8 8 18 6 22 -6 10 10 11 19 1 4 -3 2 -12 -4
-20 -7 -8 -8 -13 -1 -13 14 0 23 28 12 35 -6 4 -10 12 -10 18 1 7 10 1 20 -12
11 -13 20 -19 20 -14 0 5 -5 14 -12 21 -7 7 -8 12 -2 12 6 0 15 -5 22 -12 8
-8 15 -8 27 2 18 15 20 0 3 -19 -8 -9 -8 -11 -2 -8 19 11 25 -22 6 -32 -9 -6
-12 -10 -7 -11 24 0 34 17 30 50 -4 31 -3 32 8 15 11 -20 16 -35 19 -67 1 -10
6 -18 10 -18 10 0 10 3 -1 34 -8 19 -6 28 6 38 14 11 15 10 9 -9 -10 -30 33
-72 50 -49 9 13 16 11 48 -16 29 -24 35 -26 25 -10 -8 12 -17 22 -22 22 -4 0
-5 5 -1 12 5 7 11 5 21 -7 7 -11 13 -13 13 -7 0 7 4 12 9 12 5 0 7 -10 5 -22
-4 -21 -4 -21 4 -3 5 11 7 27 4 35 -4 12 -2 13 9 2 8 -7 14 -18 14 -25 0 -7 5
-14 10 -15 6 -2 17 -9 25 -15 13 -11 13 -10 0 7 -14 18 -13 18 10 12 19 -6 21
-5 10 3 -8 6 -13 11 -10 12 3 0 13 2 22 4 10 2 20 -1 24 -6 3 -5 0 -9 -5 -9
-6 0 -11 -5 -11 -11 0 -5 4 -8 9 -5 5 4 11 3 14 -1 2 -5 2 -2 0 5 -1 8 3 12 9
9 7 -2 12 -13 11 -23 -1 -10 0 -13 3 -6 3 6 10 10 15 7 5 -4 6 2 2 12 -6 15
-4 16 9 5 11 -9 18 -10 23 -2 3 5 11 10 17 10 6 0 6 -6 -2 -15 -7 -9 -10 -18
-6 -22 3 -3 6 0 6 7 0 9 5 7 15 -6 15 -19 15 -19 8 1 -6 18 -5 18 10 6 9 -7
14 -18 10 -24 -3 -6 -1 -7 6 -3 9 6 9 11 1 21 -9 11 -7 14 9 12 12 -1 19 -7
17 -13 -3 -7 3 -10 15 -7 11 3 19 0 19 -8 0 -7 3 -9 6 -6 13 12 43 -13 38 -31
-5 -14 -4 -14 4 -3 7 10 6 21 -3 35 -7 12 -11 29 -10 39 2 11 1 16 -2 13 -3
-3 -14 -1 -25 5 -15 8 -24 7 -37 -5 -16 -15 -20 -15 -30 -2 -14 16 -6 40 10
31 5 -4 9 -1 9 4 0 14 -17 14 -26 0 -4 -8 -9 -7 -15 2 -7 11 -11 10 -24 -6 -9
-11 -14 -15 -11 -8 10 18 -10 25 -24 8 -7 -8 -17 -12 -23 -8 -6 3 -7 1 -3 -5
4 -7 3 -12 -2 -12 -10 0 -26 29 -24 41 1 3 -9 5 -22 4 -19 -3 -24 1 -22 21 0
13 7 26 15 29 7 3 10 12 7 20 -3 8 -1 16 4 16 11 2 26 5 38 9 4 1 10 2 15 1 4
0 7 4 7 9 0 6 6 5 14 -2 8 -7 11 -17 8 -22 -3 -5 0 -6 6 -2 13 8 5 36 -11 36
-7 0 -7 4 1 12 7 7 12 17 12 22 0 6 -7 0 -16 -12 -23 -34 -52 -27 -45 11 1 5
-3 6 -8 2 -6 -3 -8 -11 -5 -19 3 -7 -2 -13 -11 -13 -21 0 -19 13 5 37 11 11
16 20 11 20 -5 0 -20 -15 -33 -32z m-122 -30 c10 14 13 13 24 -7 6 -13 7 -21
2 -17 -6 3 -14 2 -17 -4 -5 -8 -11 -8 -20 0 -7 6 -19 8 -27 5 -9 -4 -15 0 -15
9 0 8 4 13 9 10 4 -3 8 1 9 8 0 9 4 8 12 -4 10 -15 12 -15 23 0z m-201 -9 c5
9 10 9 21 0 8 -6 14 -8 14 -4 0 4 11 0 25 -9 14 -9 25 -13 25 -9 0 5 10 14 23
22 21 13 22 13 4 -6 -9 -11 -14 -23 -10 -28 5 -4 2 -5 -4 -1 -7 4 -13 3 -13
-2 0 -6 7 -12 15 -16 8 -3 14 -11 13 -17 -2 -6 5 -13 15 -14 9 -2 17 2 17 8 0
6 9 1 20 -10 10 -12 27 -20 37 -18 10 2 18 4 18 5 0 1 8 3 17 5 10 2 16 -2 15
-8 -1 -7 4 -11 11 -9 6 1 18 3 25 5 6 1 12 -4 12 -10 0 -7 -4 -14 -10 -15 -5
0 -16 -8 -23 -17 -12 -15 -13 -15 -8 1 2 9 -3 23 -13 32 -16 15 -19 15 -31 1
-9 -10 -16 -12 -25 -5 -7 6 -15 6 -22 -1 -8 -8 -18 -6 -36 6 -19 12 -27 13
-33 4 -4 -8 -3 -9 4 -5 8 4 12 0 12 -11 -1 -16 -3 -15 -20 5 -10 13 -17 29
-14 36 6 17 -12 30 -21 16 -4 -6 -11 -8 -16 -4 -5 3 -7 10 -4 15 4 5 1 10 -4
10 -6 1 -17 2 -23 3 -7 1 -19 -2 -26 -7 -7 -6 -15 -7 -19 -3 -3 3 -1 6 6 6 8
0 6 8 -4 24 -13 19 -13 25 -3 29 7 2 16 0 19 -6 4 -5 9 -5 14 2z m345 0 c0
-10 -27 -19 -34 -12 -12 12 -5 22 14 20 11 -1 20 -4 20 -8z m-435 -30 c11 -17
-1 -21 -15 -4 -8 9 -8 15 -2 15 6 0 14 -5 17 -11z m510 -106 c-2 -10 -4 -19
-4 -21 -1 -2 -6 0 -11 3 -8 5 -7 11 1 21 15 18 18 18 14 -3z m52 -19 c2 -6 -3
-11 -10 -11 -8 0 -14 6 -14 14 0 15 19 12 24 -3z m73 -4 c0 -5 5 -9 11 -7 6 1
13 -6 14 -15 3 -16 1 -16 -26 -2 -16 8 -27 19 -24 24 8 13 25 13 25 0z"/>
<path d="M4135 554 c9 -7 25 -11 36 -9 18 4 24 -6 20 -29 -1 -5 4 -4 13 3 10
8 16 9 21 1 3 -5 10 -10 16 -10 5 0 -1 10 -13 23 -13 12 -31 21 -40 21 -10 -1
-18 2 -18 7 0 5 -12 8 -26 7 -22 -2 -23 -4 -9 -14z"/>
<path d="M4281 474 c6 -7 16 -11 21 -8 11 7 3 17 -18 20 -12 2 -13 -1 -3 -12z"/>
<path d="M4625 640 c-3 -6 1 -7 9 -4 18 7 21 14 7 14 -6 0 -13 -4 -16 -10z"/>
<path d="M5073 635 c0 -8 4 -12 9 -9 5 3 6 10 3 15 -9 13 -12 11 -12 -6z"/>
<path d="M5152 624 c-1 -13 0 -24 2 -24 7 0 14 40 7 44 -4 3 -8 -6 -9 -20z"/>
<path d="M5306 642 c-2 -4 4 -8 14 -8 10 0 16 4 14 8 -3 4 -9 8 -14 8 -5 0
-11 -4 -14 -8z"/>
<path d="M5550 645 c0 -7 30 -13 34 -7 3 4 -4 9 -15 9 -10 1 -19 0 -19 -2z"/>
<path d="M3955 630 c-4 -6 -11 -8 -16 -5 -5 4 -9 2 -9 -4 0 -5 9 -9 19 -8 11
0 18 4 15 8 -2 4 2 10 8 12 9 4 10 6 1 6 -6 1 -15 -4 -18 -9z"/>
<path d="M4373 625 c0 -8 4 -15 9 -15 4 0 8 4 8 9 0 6 -4 12 -8 15 -5 3 -9 -1
-9 -9z"/>
<path d="M5609 623 c-13 -16 -12 -17 4 -4 9 7 17 15 17 17 0 8 -8 3 -21 -13z"/>
<path d="M3806 622 c-3 -5 1 -9 9 -9 8 0 12 4 9 9 -3 4 -7 8 -9 8 -2 0 -6 -4
-9 -8z"/>
<path d="M4057 613 c3 -7 6 -13 8 -13 2 0 5 6 8 13 3 8 -1 14 -8 14 -7 0 -11
-6 -8 -14z"/>
<path d="M4435 620 c6 -10 4 -12 -11 -6 -15 6 -17 5 -6 -5 9 -9 15 -10 23 -2
8 8 7 13 -2 18 -8 6 -10 4 -4 -5z"/>
<path d="M4520 620 c0 -5 5 -10 11 -10 5 0 7 5 4 10 -3 6 -8 10 -11 10 -2 0
-4 -4 -4 -10z"/>
<path d="M5270 610 c0 -6 7 -10 15 -10 8 0 15 2 15 4 0 2 -7 6 -15 10 -8 3
-15 1 -15 -4z"/>
<path d="M5360 609 c0 -5 -4 -8 -9 -5 -12 8 -34 -21 -26 -34 3 -6 10 -8 15 -5
4 3 10 -2 13 -9 3 -8 15 -14 26 -13 21 1 19 12 -2 12 -7 0 -11 13 -10 33 1 17
0 32 -3 32 -2 0 -4 -5 -4 -11z m0 -32 c0 -7 -4 -6 -10 3 -8 12 -10 12 -10 1 0
-8 -3 -12 -6 -8 -9 9 6 28 17 22 5 -4 9 -12 9 -18z"/>
<path d="M5636 612 c-2 -4 4 -8 14 -8 10 0 16 4 14 8 -3 4 -9 8 -14 8 -5 0
-11 -4 -14 -8z"/>
<path d="M3750 606 c0 -2 7 -7 16 -10 8 -3 12 -2 9 4 -6 10 -25 14 -25 6z"/>
<path d="M3902 596 c10 -7 14 -17 10 -21 -4 -5 -1 -5 6 -1 19 11 14 23 -10 29
-21 5 -21 5 -6 -7z"/>
<path d="M7036 602 c-3 -5 1 -9 9 -9 8 0 12 4 9 9 -3 4 -7 8 -9 8 -2 0 -6 -4
-9 -8z"/>
<path d="M7494 602 c3 -6 -2 -15 -11 -21 -10 -6 -13 -11 -7 -11 20 0 37 27 23
36 -7 4 -9 3 -5 -4z"/>
<path d="M7567 599 c7 -7 15 -10 18 -7 3 3 -2 9 -12 12 -14 6 -15 5 -6 -5z"/>
<path d="M7650 599 c0 -5 5 -7 10 -4 6 3 10 8 10 11 0 2 -4 4 -10 4 -5 0 -10
-5 -10 -11z"/>
<path d="M7690 599 c0 -5 5 -7 10 -4 6 3 10 8 10 11 0 2 -4 4 -10 4 -5 0 -10
-5 -10 -11z"/>
<path d="M3793 585 c0 -7 6 -12 13 -12 7 0 15 5 17 12 3 6 -3 11 -12 11 -10 0
-18 -5 -18 -11z"/>
<path d="M3858 588 c5 -5 16 -8 23 -6 8 3 3 7 -10 11 -17 4 -21 3 -13 -5z"/>
<path d="M7107 576 c-4 -10 -1 -13 9 -9 7 3 14 9 14 14 0 14 -17 10 -23 -5z"/>
<path d="M7280 580 c18 -12 30 -13 30 -2 0 4 -10 9 -22 9 -18 2 -20 0 -8 -7z"/>
<path d="M8040 575 c-7 -9 -11 -17 -9 -20 3 -2 10 5 17 15 14 24 10 26 -8 5z"/>
<path d="M7009 563 c-12 -16 -12 -17 1 -7 8 6 22 14 30 17 13 5 12 6 -1 6 -9
1 -23 -7 -30 -16z"/>
<path d="M7633 565 c0 -8 4 -12 9 -9 5 3 6 10 3 15 -9 13 -12 11 -12 -6z"/>
<path d="M4593 550 c1 -14 4 -16 19 -7 18 12 16 20 -7 23 -8 1 -13 -6 -12 -16z"/>
<path d="M5656 561 c-4 -5 -2 -12 3 -15 5 -4 12 -2 15 3 4 5 2 12 -3 15 -5 4
-12 2 -15 -3z"/>
<path d="M7062 561 c2 -18 -3 -24 -11 -12 -10 15 -31 7 -31 -12 0 -8 3 -8 9 1
6 10 10 10 20 -2 8 -10 9 -16 1 -21 -5 -3 -10 -12 -10 -18 1 -7 9 -2 20 11 24
29 29 31 40 11 5 -9 19 -15 32 -13 13 1 27 3 31 3 5 1 6 5 2 10 -3 6 -15 8
-27 6 -20 -4 -63 27 -52 37 2 3 -2 5 -10 5 -8 0 -15 -3 -14 -6z m22 -19 c3 -5
-1 -9 -9 -9 -8 0 -12 4 -9 9 3 4 7 8 9 8 2 0 6 -4 9 -8z"/>
<path d="M7274 551 c10 -11 15 -24 11 -30 -3 -6 0 -8 8 -5 8 3 18 0 22 -6 5
-8 13 -6 27 7 11 10 22 17 24 16 2 -2 4 -1 4 2 0 3 -2 4 -5 3 -2 -2 -11 6 -20
17 -13 16 -16 17 -11 3 3 -10 1 -20 -4 -23 -6 -4 -10 2 -11 12 0 16 -1 16 -9
-2 -7 -18 -9 -18 -15 -3 -3 9 -14 19 -23 23 -13 5 -13 3 2 -14z m76 -15 c0 -2
-6 -9 -14 -15 -11 -9 -16 -9 -22 0 -4 7 -3 9 4 5 6 -3 13 -2 17 4 6 10 15 14
15 6z"/>
<path d="M7506 558 c3 -4 11 -5 19 -1 21 7 19 12 -4 10 -11 0 -18 -5 -15 -9z"/>
<path d="M7555 560 c3 -5 8 -10 11 -10 2 0 4 5 4 10 0 6 -5 10 -11 10 -5 0 -7
-4 -4 -10z"/>
<path d="M7797 556 c-16 -13 -16 -14 -1 -20 9 -4 19 -4 22 -1 3 3 0 5 -8 5
-10 0 -10 3 0 15 15 18 11 19 -13 1z"/>
<path d="M7970 560 c0 -5 5 -10 11 -10 5 0 7 5 4 10 -3 6 -8 10 -11 10 -2 0
-4 -4 -4 -10z"/>
<path d="M4431 544 c6 -7 16 -11 21 -8 11 7 3 17 -18 20 -12 2 -13 -1 -3 -12z"/>
<path d="M5436 548 c3 -5 10 -6 15 -3 13 9 11 12 -6 12 -8 0 -12 -4 -9 -9z"/>
<path d="M7740 551 c0 -7 -4 -10 -9 -6 -5 3 -13 0 -17 -6 -4 -8 -3 -9 4 -5 7
4 12 1 12 -6 0 -8 5 -6 11 5 6 10 8 21 5 24 -3 4 -6 1 -6 -6z"/>
<path d="M3783 539 c9 -6 15 -14 12 -18 -2 -5 2 -14 10 -21 8 -7 12 -17 8 -23
-4 -6 -1 -7 6 -3 9 6 8 13 -5 27 -9 10 -14 19 -9 19 4 0 2 7 -5 15 -7 8 -18
15 -24 15 -6 0 -3 -5 7 -11z"/>
<path d="M4366 534 c-10 -7 -23 -11 -29 -7 -5 3 -7 0 -5 -8 3 -8 12 -12 19
-10 8 2 25 4 39 3 14 0 19 2 12 5 -6 2 -10 9 -7 13 10 16 -10 18 -29 4z"/>
<path d="M7851 534 c0 -11 3 -14 6 -6 3 7 2 16 -1 19 -3 4 -6 -2 -5 -13z"/>
<path d="M7947 539 c7 -7 15 -10 18 -7 3 3 -2 9 -12 12 -14 6 -15 5 -6 -5z"/>
<path d="M3755 521 c-3 -5 -2 -12 3 -15 5 -3 9 1 9 9 0 17 -3 19 -12 6z"/>
<path d="M3827 519 c7 -7 15 -10 18 -7 3 3 -2 9 -12 12 -14 6 -15 5 -6 -5z"/>
<path d="M3879 523 c0 -5 -2 -16 -4 -25 -2 -10 0 -18 5 -18 4 0 8 11 8 25 0
22 -7 36 -9 18z"/>
<path d="M7990 526 c0 -2 7 -7 16 -10 8 -3 12 -2 9 4 -6 10 -25 14 -25 6z"/>
<path d="M3982 500 c0 -14 2 -19 5 -12 2 6 2 18 0 25 -3 6 -5 1 -5 -13z"/>
<path d="M3908 503 c10 -4 10 -8 0 -21 -12 -15 -11 -16 5 -3 9 7 17 17 17 22
0 5 -8 9 -17 8 -12 0 -13 -2 -5 -6z"/>
<path d="M7976 502 c-3 -5 1 -9 9 -9 8 0 12 4 9 9 -3 4 -7 8 -9 8 -2 0 -6 -4
-9 -8z"/>
<path d="M4113 474 c0 -14 2 -21 6 -17 3 4 9 10 12 13 4 3 1 10 -6 17 -10 9
-12 6 -12 -13z"/>
<path d="M3959 488 c-5 -18 -6 -38 -1 -34 7 8 12 36 6 36 -2 0 -4 -1 -5 -2z"/>
<path d="M7904 472 c-17 -12 -10 -29 20 -53 28 -22 28 -22 15 -1 -8 12 -19 22
-26 22 -7 0 -10 7 -7 15 5 12 9 13 20 4 8 -7 16 -10 19 -8 8 8 -32 27 -41 21z"/>
<path d="M8030 461 c0 -6 4 -13 10 -16 6 -3 7 1 4 9 -7 18 -14 21 -14 7z"/>
<path d="M7955 441 c-3 -5 0 -13 6 -17 7 -4 9 -3 5 4 -3 5 0 13 6 15 9 4 10 6
1 6 -6 1 -14 -3 -18 -8z"/>
<path d="M3950 419 c0 -5 5 -7 10 -4 6 3 10 8 10 11 0 2 -4 4 -10 4 -5 0 -10
-5 -10 -11z"/>
<path d="M4039 413 c-13 -16 -12 -17 4 -4 9 7 17 15 17 17 0 8 -8 3 -21 -13z"/>
<path d="M4273 415 c0 -8 4 -12 9 -9 4 3 8 9 8 15 0 5 -4 9 -8 9 -5 0 -9 -7
-9 -15z"/>
<path d="M7976 413 c-6 -14 -5 -15 5 -6 7 7 10 15 7 18 -3 3 -9 -2 -12 -12z"/>
<path d="M4375 400 c-3 -5 -1 -10 4 -10 6 0 11 5 11 10 0 6 -2 10 -4 10 -3 0
-8 -4 -11 -10z"/>
<path d="M4453 389 c-2 -23 3 -25 10 -4 4 8 3 16 -1 19 -4 3 -9 -4 -9 -15z"/>
<path d="M7834 380 c0 -16 2 -28 4 -25 9 8 11 55 3 55 -4 0 -7 -13 -7 -30z"/>
<path d="M4553 382 c2 -12 6 -24 10 -28 3 -4 4 4 2 16 -6 30 -16 40 -12 12z"/>
<path d="M7373 386 c0 -8 9 -14 19 -13 22 2 24 13 2 21 -21 8 -21 8 -21 -8z"/>
<path d="M7727 393 c-11 -11 -8 -21 9 -27 14 -5 15 -4 5 8 -9 11 -9 15 1 19 7
3 8 6 2 6 -6 1 -14 -2 -17 -6z"/>
<path d="M7787 387 c-3 -8 1 -14 8 -14 7 0 11 6 8 14 -3 7 -6 13 -8 13 -2 0
-5 -6 -8 -13z"/>
<path d="M4227 379 c7 -7 15 -10 18 -7 3 3 -2 9 -12 12 -14 6 -15 5 -6 -5z"/>
<path d="M4420 380 c-9 -6 -10 -10 -3 -10 6 0 15 5 18 10 8 12 4 12 -15 0z"/>
<path d="M7260 369 c-14 -12 -19 -17 -11 -13 8 4 27 9 44 10 33 4 44 11 34 20
-4 4 -13 2 -21 -5 -9 -7 -15 -8 -18 -2 -1 6 -14 1 -28 -10z"/>
<path d="M4830 370 c0 -5 5 -10 11 -10 5 0 7 5 4 10 -3 6 -8 10 -11 10 -2 0
-4 -4 -4 -10z"/>
<path d="M5085 370 c-3 -5 -5 -10 -3 -11 33 -8 38 -7 27 7 -14 17 -16 17 -24
4z"/>
<path d="M7667 367 c-3 -8 1 -14 8 -14 7 0 11 6 8 14 -3 7 -6 13 -8 13 -2 0
-5 -6 -8 -13z"/>
<path d="M5199 351 c8 -5 11 -16 8 -24 -4 -12 -2 -14 10 -10 10 4 14 2 9 -5
-9 -15 14 -26 27 -13 9 9 7 10 -8 5 -18 -7 -19 -6 -6 9 13 17 15 16 33 -3 20
-21 34 -27 23 -10 -3 6 -1 10 4 10 6 0 11 -3 12 -7 2 -25 8 -46 15 -51 4 -4 5
0 1 10 -3 9 3 24 15 34 19 18 20 18 38 -3 14 -18 19 -20 24 -8 3 8 1 17 -5 21
-6 3 -8 12 -5 20 6 16 -10 19 -19 3 -4 -6 -14 -8 -22 -5 -8 3 -12 2 -9 -3 3
-5 -2 -15 -11 -22 -14 -12 -15 -11 -9 11 5 17 4 21 -2 11 -8 -10 -13 -8 -26
10 -13 19 -18 21 -25 10 -7 -11 -9 -11 -13 0 -4 11 -8 12 -20 1 -13 -10 -17
-10 -22 3 -3 8 -11 15 -18 15 -10 0 -9 -3 1 -9z m91 -31 c0 -5 -2 -10 -4 -10
-3 0 -8 5 -11 10 -3 6 -1 10 4 10 6 0 11 -4 11 -10z m101 -17 c13 -16 12 -17
-3 -4 -10 7 -18 15 -18 17 0 8 8 3 21 -13z"/>
<path d="M4843 339 c9 -6 14 -15 11 -21 -4 -7 -2 -8 4 -4 16 9 3 36 -17 36
-14 -1 -14 -2 2 -11z"/>
<path d="M7144 338 c4 -19 23 -20 30 -2 5 14 4 15 -8 5 -10 -8 -16 -9 -19 -1
-3 6 -4 5 -3 -2z"/>
<path d="M6930 330 c0 -15 15 -19 30 -9 8 5 13 9 10 10 -3 0 -13 2 -22 4 -10
2 -18 -1 -18 -5z"/>
<path d="M7078 333 c10 -4 8 -8 -5 -18 -10 -7 -14 -17 -10 -22 5 -4 14 0 22
10 11 15 14 16 25 2 10 -12 15 -13 21 -4 12 19 -1 42 -16 29 -9 -8 -15 -8 -20
0 -3 5 -12 10 -18 9 -8 0 -8 -2 1 -6z"/>
<path d="M4995 321 c-3 -5 -2 -12 3 -15 5 -3 9 1 9 9 0 17 -3 19 -12 6z"/>
<path d="M7346 322 c-3 -5 1 -9 9 -9 8 0 12 4 9 9 -3 4 -7 8 -9 8 -2 0 -6 -4
-9 -8z"/>
<path d="M7393 314 c-3 -8 -2 -19 3 -24 5 -5 9 1 9 16 0 28 -3 30 -12 8z"/>
<path d="M4756 307 c3 -10 9 -15 12 -12 3 3 0 11 -7 18 -10 9 -11 8 -5 -6z"/>
<path d="M5130 295 c5 -7 6 -16 2 -21 -4 -5 -3 -5 2 -1 15 12 15 34 0 34 -9 0
-11 -4 -4 -12z"/>
<path d="M5590 300 c0 -5 5 -10 11 -10 5 0 7 5 4 10 -3 6 -8 10 -11 10 -2 0
-4 -4 -4 -10z"/>
<path d="M7280 299 c0 -5 5 -7 10 -4 6 3 10 8 10 11 0 2 -4 4 -10 4 -5 0 -10
-5 -10 -11z"/>
<path d="M7530 306 c0 -2 7 -7 16 -10 8 -3 12 -2 9 4 -6 10 -25 14 -25 6z"/>
<path d="M7195 290 c3 -5 8 -10 11 -10 2 0 4 5 4 10 0 6 -5 10 -11 10 -5 0 -7
-4 -4 -10z"/>
<path d="M5095 280 c3 -5 8 -10 11 -10 2 0 4 5 4 10 0 6 -5 10 -11 10 -5 0 -7
-4 -4 -10z"/>
<path d="M5190 278 c0 -4 4 -8 9 -8 6 0 12 4 15 8 3 5 -1 9 -9 9 -8 0 -15 -4
-15 -9z"/>
<path d="M5260 280 c-9 -6 -10 -10 -3 -10 6 0 15 5 18 10 8 12 4 12 -15 0z"/>
<path d="M5350 282 c0 -5 7 -9 15 -9 8 0 12 4 9 9 -3 4 -9 8 -15 8 -5 0 -9 -4
-9 -8z"/>
<path d="M7148 283 c6 -2 18 -2 25 0 6 3 1 5 -13 5 -14 0 -19 -2 -12 -5z"/>
<path d="M5840 276 c0 -2 7 -9 15 -16 9 -7 15 -8 15 -2 0 5 -7 12 -15 16 -8 3
-15 4 -15 2z"/>
<path d="M6589 278 c-9 -43 -8 -48 14 -47 16 0 18 2 7 7 -17 8 -25 32 -11 32
5 0 12 -5 14 -10 3 -6 4 -5 3 2 -2 10 -25 25 -27 16z"/>
<path d="M6831 270 c-9 -5 -4 -7 13 -7 29 0 32 2 13 10 -8 3 -20 2 -26 -3z"/>
<path d="M7051 264 c0 -11 3 -14 6 -6 3 7 2 16 -1 19 -3 4 -6 -2 -5 -13z"/>
<path d="M6430 260 c0 -5 5 -10 11 -10 5 0 7 5 4 10 -3 6 -8 10 -11 10 -2 0
-4 -4 -4 -10z"/>
<path d="M6502 245 c-10 -21 -9 -23 5 -18 11 4 14 3 9 -5 -4 -7 -3 -12 2 -12
11 0 13 48 2 55 -4 2 -12 -7 -18 -20z"/>
<path d="M6549 263 c-6 -38 -4 -50 7 -50 8 0 14 4 14 9 0 4 -4 8 -10 8 -5 0
-10 5 -10 11 0 5 5 7 10 4 6 -3 10 -2 10 4 0 12 -20 25 -21 14z"/>
<path d="M6925 260 c-3 -6 1 -7 9 -4 18 7 21 14 7 14 -6 0 -13 -4 -16 -10z"/>
<path d="M7136 258 c3 -5 10 -6 15 -3 13 9 11 12 -6 12 -8 0 -12 -4 -9 -9z"/>
<path d="M5376 247 c3 -10 9 -15 12 -12 3 3 0 11 -7 18 -10 9 -11 8 -5 -6z"/>
<path d="M5716 248 c3 -5 10 -6 15 -3 13 9 11 12 -6 12 -8 0 -12 -4 -9 -9z"/>
<path d="M5913 232 c15 -38 24 -46 32 -31 6 8 4 10 -4 4 -9 -5 -12 0 -9 20 2
20 -2 29 -14 31 -14 2 -15 -2 -5 -24z"/>
<path d="M5415 240 c3 -5 8 -10 11 -10 2 0 4 5 4 10 0 6 -5 10 -11 10 -5 0 -7
-4 -4 -10z"/>
<path d="M5613 229 c-2 -23 3 -25 10 -4 4 8 3 16 -1 19 -4 3 -9 -4 -9 -15z"/>
<path d="M5954 235 c-19 -15 -19 -15 0 -8 13 4 17 3 12 -5 -4 -7 -3 -12 3 -12
5 0 12 6 14 13 4 10 6 10 6 0 1 -18 18 -16 25 3 3 9 2 12 -5 9 -5 -4 -16 -2
-23 4 -9 8 -18 7 -32 -4z"/>
<path d="M6070 241 c0 -6 3 -10 8 -10 21 4 34 -2 29 -14 -3 -8 -1 -20 5 -28 8
-11 9 -10 4 4 -3 9 -1 17 4 17 10 0 13 -12 11 -40 0 -10 1 -11 5 -2 3 6 11 9
17 6 8 -5 8 -2 0 7 -19 19 -16 26 9 24 12 -1 25 -10 30 -21 7 -17 8 -17 4 3
-2 12 1 24 8 26 6 2 7 8 3 13 -4 5 -12 2 -17 -6 -9 -13 -10 -13 -10 0 0 13 -2
13 -9 1 -8 -13 -12 -13 -26 -1 -9 8 -22 15 -29 16 -6 1 -19 5 -28 9 -11 4 -18
3 -18 -4z"/>
<path d="M6838 243 c7 -3 16 -2 19 1 4 3 -2 6 -13 5 -11 0 -14 -3 -6 -6z"/>
<path d="M6950 239 c0 -5 5 -7 10 -4 6 3 10 8 10 11 0 2 -4 4 -10 4 -5 0 -10
-5 -10 -11z"/>
<path d="M7010 239 c0 -5 5 -7 10 -4 6 3 10 8 10 11 0 2 -4 4 -10 4 -5 0 -10
-5 -10 -11z"/>
<path d="M5546 218 c3 -5 10 -6 15 -3 13 9 11 12 -6 12 -8 0 -12 -4 -9 -9z"/>
<path d="M5715 220 c-4 -6 -1 -9 7 -8 7 2 12 -3 10 -10 -1 -8 2 -11 7 -7 11 6
3 35 -9 35 -5 0 -12 -5 -15 -10z"/>
<path d="M6665 220 c-3 -6 1 -7 9 -4 18 7 21 14 7 14 -6 0 -13 -4 -16 -10z"/>
<path d="M6590 210 c-9 -6 -10 -10 -3 -10 6 0 15 5 18 10 8 12 4 12 -15 0z"/>
<path d="M6735 211 c-3 -5 -2 -12 3 -15 5 -3 9 1 9 9 0 17 -3 19 -12 6z"/>
<path d="M5850 200 c0 -5 5 -10 11 -10 5 0 7 5 4 10 -3 6 -8 10 -11 10 -2 0
-4 -4 -4 -10z"/>
<path d="M5895 200 c-3 -5 -1 -10 4 -10 6 0 11 5 11 10 0 6 -2 10 -4 10 -3 0
-8 -4 -11 -10z"/>
<path d="M6474 199 c-3 -6 -1 -16 5 -22 9 -9 10 -7 5 7 -6 16 -4 18 10 13 10
-4 15 -3 11 3 -8 13 -22 13 -31 -1z"/>
<path d="M5963 190 c-29 -12 -29 -15 0 -15 13 0 24 6 24 13 0 6 -1 12 -1 11
-1 0 -11 -4 -23 -9z"/>
<path d="M6038 193 c7 -3 16 -2 19 1 4 3 -2 6 -13 5 -11 0 -14 -3 -6 -6z"/>
<path d="M6430 191 c0 -6 4 -12 8 -15 5 -3 9 1 9 9 0 8 -4 15 -9 15 -4 0 -8
-4 -8 -9z"/>
<path d="M6553 185 c0 -8 4 -12 9 -9 5 3 6 10 3 15 -9 13 -12 11 -12 -6z"/>
<path d="M5560 180 c-9 -6 -10 -10 -3 -10 6 0 15 5 18 10 8 12 4 12 -15 0z"/>
<path d="M5940 146 c0 -2 8 -10 18 -17 15 -13 16 -12 3 4 -13 16 -21 21 -21
13z"/>
<path d="M6370 141 c0 -6 4 -13 10 -16 6 -3 7 1 4 9 -7 18 -14 21 -14 7z"/>
</g>
</svg>
